<svg xmlns="http://www.w3.org/2000/svg" viewBox="0 0 100 100">
  <defs>
    <filter id="glow" x="-30%" y="-30%" width="160%" height="160%">
      <feGaussianBlur stdDeviation="3" result="blur"/>
      <feMerge>
        <feMergeNode in="blur"/>
        <feMergeNode in="SourceGraphic"/>
      </feMerge>
    </filter>
  </defs>
  <rect width="100" height="100" rx="20" fill="#0c0c0e"/>
  <g transform="translate(50,65)" fill="#00e676" filter="url(#glow)">
    <path d="M0 0 C-10-5,-8-20,0-38 C8-20,10-5,0 0Z"/>
    <path d="M0 0 C-9-5,-7-18,0-34 C7-18,9-5,0 0Z" transform="rotate(30)"/>
    <path d="M0 0 C-9-5,-7-18,0-34 C7-18,9-5,0 0Z" transform="rotate(-30)"/>
    <path d="M0 0 C-7-4,-6-14,0-26 C6-14,7-4,0 0Z" transform="rotate(62)"/>
    <path d="M0 0 C-7-4,-6-14,0-26 C6-14,7-4,0 0Z" transform="rotate(-62)"/>
    <rect x="-1.5" y="0" width="3" height="22" rx="1.5"/>
  </g>
</svg>
